<?xml version="1.0" encoding="UTF-8" standalone="no"?>
<svg
   width="1000"
   height="943.51788"
   viewBox="0 0 1000 943.51788"
   fill="none"
   version="1.1"
   id="svg13"
   xmlns="http://www.w3.org/2000/svg"
   xmlns:svg="http://www.w3.org/2000/svg">
  <defs
     id="defs13" />
  <g
     id="g14"
     style="fill:#000000;fill-opacity:1"
     transform="matrix(18.331749,0,0,18.331749,-146.65402,-164.98463)">
    <path
       fill-rule="evenodd"
       clip-rule="evenodd"
       d="m 11.0962,44.3907 h 3.6772 l 7.5703,10.1382 V 44.3907 H 25.79 V 60.0671 H 22.1129 L 14.5427,49.9065 v 10.1606 h -3.4465 z"
       fill="white"
       id="path1"
       style="fill:#000000;fill-opacity:1" />
    <path
       fill-rule="evenodd"
       clip-rule="evenodd"
       d="m 40.0123,55.132 c 0,-1.504 -1.2536,-1.8944 -2.4744,-1.8944 h -5.3191 v 3.744 h 5.445 c 0.9929,0 2.3485,-0.3456 2.3485,-1.8496 z m -7.7935,-7.8003 v 2.965 h 5.374 c 0.8868,0 1.8612,-0.3694 1.8612,-1.4726 0,-1.1033 -0.7598,-1.4924 -1.9871,-1.4924 z m 11.3346,7.8003 c 0,4.2652 -3.4152,4.9351 -5.5499,4.9351 H 28.8916 V 44.3907 h 9.1038 c 2.7918,0 5.0221,1.5856 5.0221,4.5555 0,1.4702 -1.0355,2.2815 -1.8228,2.6814 1.2949,0.6504 2.3587,1.6101 2.3587,3.5044 z"
       fill="white"
       id="path2"
       style="fill:#000000;fill-opacity:1" />
    <path
       fill-rule="evenodd"
       clip-rule="evenodd"
       d="m 59.1214,54.9757 v 0 l -0.0886,-0.1038 v 0 l -0.1161,-0.1358 c -1.549,1.3212 -2.5344,2.0689 -4.7702,2.0689 l -0.0944,-3e-4 c -3.0744,0 -4.9775,-2.3869 -4.9775,-4.5981 0,-2.5354 2.242,-4.598 4.997,-4.598 2.2191,0.0201 3.3929,1.2114 3.957,1.7839 l 0.0882,0.0889 0.0634,-0.063 v 2e-4 l 0.0103,-0.0105 0.0529,-0.0527 v 0 l 0.0962,-0.0964 h 2e-4 l 2.3671,-2.3671 c -0.2904,-0.2904 -2.5011,-2.9255 -6.6099,-2.9255 -4.7343,0 -8.6644,3.5954 -8.6868,8.2179 0,4.4884 3.7739,8.2624 8.6421,8.2847 3.6622,0 5.5157,-1.4962 7.2351,-2.97 z"
       fill="white"
       id="path3"
       style="fill:#000000;fill-opacity:1" />
  </g>
  <g
     id="g13"
     transform="matrix(18.331749,0,0,18.331749,-146.65402,-164.98463)">
    <path
       fill-rule="evenodd"
       clip-rule="evenodd"
       d="m 43.0995,9.15465 c -3.7797,-0.85641 -7.276,1.95145 -6.8867,5.80365 h 0.0041 2.448 c 0,0 1.1428,-0.012 1.4761,0.7225 0,0 -3.6239,1.3121 -3.3367,3.4422 l 2.2555,15.669 7.896,-18.0332 C 48.1616,14.0213 46.8151,9.98361 43.0995,9.15465"
       fill="#6e55dc"
       id="path4" />
    <path
       fill-rule="evenodd"
       clip-rule="evenodd"
       d="M 32.2899,40.6253 16.9017,30.3697 c -3.9174,-2.6162 -7.79065,0.0499 -8.61213,2.8053 -1.2103,4.0639 1.50071,7.4503 5.75873,7.4503 z"
       fill="#fccc12"
       id="path6" />
    <path
       fill-rule="evenodd"
       clip-rule="evenodd"
       d="m 34.3093,15.2076 c 0.5702,-3.9798 -2.9978,-6.92787 -6.8588,-6.05305 -3.7156,0.82912 -5.062,4.86665 -3.8563,7.60415 l 7.896,18.0334 z"
       fill="#ef1541"
       id="path8" />
    <path
       fill-rule="evenodd"
       clip-rule="evenodd"
       d="M 30.859,37.7498 23.2829,20.4815 c -1.7741,-4.0035 -6.4713,-4.5003 -9.0669,-2.1537 -1.8258,1.6554 -3.2455,6.1619 0.8405,8.8901 z"
       fill="#ff7112"
       id="path9" />
    <path
       fill-rule="evenodd"
       clip-rule="evenodd"
       d="M 38.2603,40.6253 53.6484,30.3697 c 3.9174,-2.6162 7.7907,0.0499 8.6122,2.8053 1.2103,4.0639 -1.5007,7.4503 -5.7588,7.4503 z"
       fill="#05ac3f"
       id="path11" />
    <path
       fill-rule="evenodd"
       clip-rule="evenodd"
       d="M 39.6909,37.7498 47.267,20.4815 c 1.7741,-4.0035 6.4714,-4.5003 9.067,-2.1537 1.8257,1.6554 3.2455,6.1619 -0.8405,8.8901 z"
       fill="#069de0"
       id="path12" />
  </g>
</svg>
